<svg width="656" height="185" viewBox="0 0 656 185" fill="none" xmlns="http://www.w3.org/2000/svg">
<path d="M79.3374 73.9206L136.382 5.68806C138.964 2.61452 142.16 1.38511 146.095 1.38511C152.119 1.38511 155.192 4.21276 155.192 9.74513V84.9853C155.192 89.6571 152.365 90.7635 146.955 90.7635C141.546 90.7635 138.718 89.6571 138.718 84.9853V26.7111L89.6644 86.0918C86.8368 89.4112 84.255 90.7635 79.9521 90.7635C75.2803 90.7635 72.2067 89.2883 69.625 86.0918L20.4484 26.7111V84.9853C20.4484 89.6571 17.6207 90.7635 12.2113 90.7635C6.92482 90.7635 4.09717 89.6571 4.09717 84.9853V9.74513C4.09717 4.21276 7.17071 1.38511 13.0719 1.38511C17.2519 1.38511 20.3254 2.86041 22.7843 5.68806L79.3374 73.9206Z" fill="white"/>
<path d="M256.28 62.61H181.286V68.88C181.286 73.7976 187.187 77.8547 200.956 77.8547H215.094C218.783 77.8547 219.52 79.9447 219.52 84.0018C219.52 88.0588 218.783 90.2718 215.094 90.2718H200.464C177.351 90.2718 165.672 83.1412 165.672 68.88V42.2017C165.672 27.8175 177.351 20.8099 200.464 20.8099H228.864C253.452 20.8099 263.656 27.8175 263.656 42.2017V56.3399C263.656 61.1347 262.55 62.61 256.28 62.61ZM181.286 42.2017V50.4388H248.043V42.2017C248.043 36.5464 242.142 33.227 228.372 33.227H200.956C187.187 33.227 181.286 37.1611 181.286 42.2017Z" fill="white"/>
<path d="M362.653 62.61H287.659V68.88C287.659 73.7976 293.56 77.8547 307.329 77.8547H321.468C325.156 77.8547 325.894 79.9447 325.894 84.0018C325.894 88.0588 325.156 90.2718 321.468 90.2718H306.838C283.725 90.2718 272.045 83.1412 272.045 68.88V42.2017C272.045 27.8175 283.725 20.8099 306.838 20.8099H335.237C359.825 20.8099 370.03 27.8175 370.03 42.2017V56.3399C370.03 61.1347 368.923 62.61 362.653 62.61ZM287.659 42.2017V50.4388H354.416V42.2017C354.416 36.5464 348.515 33.227 334.745 33.227H307.329C293.56 33.227 287.659 37.1611 287.659 42.2017Z" fill="white"/>
<path d="M445.913 90.2718H412.473C389.36 90.2718 377.681 83.1412 377.681 68.88V62.3641C377.681 47.9799 389.36 40.9723 412.473 40.9723H465.092V40.8493C465.092 36.1775 459.191 33.227 445.422 33.227H394.078C390.39 33.227 389.53 31.1369 389.53 27.0799C389.53 22.8999 390.39 20.8099 394.078 20.8099H445.913C469.026 20.8099 480.706 27.8175 480.706 42.2017V68.88C480.706 83.1412 469.026 90.2718 445.913 90.2718ZM445.422 77.8547C459.191 77.8547 465.092 73.7976 465.092 68.88V52.8976H412.965C399.196 52.8976 393.294 56.8317 393.294 61.8723V68.88C393.294 73.7976 399.196 77.8547 412.965 77.8547H445.422Z" fill="white"/>
<path d="M616.581 90.7635C611.295 90.7635 608.713 89.6571 608.713 84.9853V42.2017C608.713 37.1611 603.795 33.227 590.026 33.227H583.141C569.494 33.227 565.314 37.1611 565.314 42.2017V84.9853C565.314 89.6571 562.733 90.7635 557.446 90.7635C551.914 90.7635 549.701 89.4112 549.701 84.9853V42.2017C549.701 37.1611 545.521 33.227 531.874 33.227H524.99C511.22 33.227 506.303 37.1611 506.303 42.2017V84.9853C506.303 89.6571 503.721 90.7635 498.434 90.7635C493.271 90.7635 490.689 89.6571 490.689 84.9853V42.2017C490.689 27.8175 502.368 20.8099 522.285 20.8099H534.456C544.66 20.8099 552.529 22.8999 557.446 26.9569C562.487 22.8999 570.232 20.8099 580.559 20.8099H592.73C612.647 20.8099 624.326 27.8175 624.326 42.2017V84.9853C624.326 89.6571 621.745 90.7635 616.581 90.7635Z" fill="white"/>
<path d="M650.986 26.9569V84.9853C650.986 89.6571 648.405 90.7635 643.118 90.7635C637.955 90.7635 635.373 89.6571 635.373 84.9853V26.9569C635.373 22.2852 637.955 21.1787 643.118 21.1787C648.405 21.1787 650.986 22.2852 650.986 26.9569ZM633.406 8.26983C633.406 2.98335 636.233 0.647461 643.118 0.647461C650.003 0.647461 652.831 2.98335 652.831 8.26983C652.831 13.5563 650.003 15.8922 643.118 15.8922C636.233 15.8922 633.406 13.5563 633.406 8.26983Z" fill="white"/>
<path d="M17.0833 183.258V137.291H0.756226V131.477H39.8694V137.291H23.5423V183.258H17.0833Z" fill="white"/>
<path d="M58.108 183.258V131.477H90.188V137.291H64.5671V153.905H88.8603V159.646H64.5671V177.444H90.188V183.258H58.108Z" fill="white"/>
<path d="M131.787 184.119C127.002 184.119 122.828 183.018 119.263 180.817C115.723 178.617 112.984 175.519 111.046 171.524C109.108 167.505 108.14 162.78 108.14 157.35V157.314C108.14 151.883 109.108 147.171 111.046 143.175C112.984 139.18 115.723 136.094 119.263 133.918C122.804 131.717 126.978 130.616 131.787 130.616C135.375 130.616 138.641 131.298 141.583 132.662C144.526 134.025 146.978 135.927 148.939 138.367C150.925 140.807 152.241 143.666 152.886 146.943L152.958 147.302H146.427L146.176 146.513C145.506 144.407 144.502 142.625 143.162 141.166C141.846 139.683 140.231 138.547 138.318 137.757C136.404 136.968 134.227 136.573 131.787 136.573C128.342 136.573 125.34 137.434 122.78 139.157C120.244 140.855 118.271 143.259 116.859 146.369C115.472 149.455 114.778 153.103 114.778 157.314V157.35C114.778 161.536 115.472 165.196 116.859 168.33C118.271 171.44 120.256 173.856 122.816 175.578C125.376 177.301 128.366 178.162 131.787 178.162C134.203 178.162 136.356 177.767 138.246 176.978C140.16 176.188 141.798 175.028 143.162 173.497C144.526 171.942 145.578 170.028 146.32 167.756L146.427 167.433H152.958L152.886 167.792C152.241 171.093 150.937 173.976 148.975 176.44C147.013 178.88 144.561 180.77 141.619 182.109C138.677 183.449 135.399 184.119 131.787 184.119Z" fill="white"/>
<path d="M172.022 183.258V131.477H178.481V153.869H206.901V131.477H213.36V183.258H206.901V159.682H178.481V183.258H172.022Z" fill="white"/>
<path d="M234.828 183.258V131.477H241.108L275.09 180.243L266.908 172.349H269.779V131.477H276.166V183.258H269.887L235.905 134.492L244.086 142.386H241.216V183.258H234.828Z" fill="white"/>
<path d="M319.523 184.119C314.619 184.119 310.373 183.03 306.785 180.853C303.22 178.676 300.469 175.59 298.531 171.595C296.594 167.6 295.625 162.864 295.625 157.385V157.314C295.625 151.835 296.594 147.111 298.531 143.14C300.493 139.145 303.256 136.059 306.821 133.882C310.409 131.705 314.643 130.616 319.523 130.616C324.404 130.616 328.626 131.705 332.19 133.882C335.755 136.059 338.506 139.145 340.444 143.14C342.381 147.111 343.35 151.835 343.35 157.314V157.385C343.35 162.864 342.381 167.6 340.444 171.595C338.506 175.59 335.755 178.676 332.19 180.853C328.65 183.03 324.427 184.119 319.523 184.119ZM319.523 178.162C323.088 178.162 326.15 177.313 328.71 175.614C331.293 173.892 333.279 171.476 334.666 168.366C336.054 165.256 336.748 161.596 336.748 157.385V157.314C336.748 153.079 336.042 149.407 334.63 146.297C333.243 143.187 331.257 140.795 328.674 139.121C326.09 137.422 323.04 136.573 319.523 136.573C316.007 136.573 312.945 137.422 310.337 139.121C307.754 140.795 305.756 143.187 304.345 146.297C302.933 149.383 302.227 153.055 302.227 157.314V157.385C302.227 161.62 302.933 165.292 304.345 168.402C305.756 171.512 307.754 173.916 310.337 175.614C312.921 177.313 315.983 178.162 319.523 178.162Z" fill="white"/>
<path d="M362.809 183.258V131.477H369.268V177.444H394.243V183.258H362.809Z" fill="white"/>
<path d="M432.505 184.119C427.6 184.119 423.354 183.03 419.766 180.853C416.201 178.676 413.45 175.59 411.513 171.595C409.575 167.6 408.606 162.864 408.606 157.385V157.314C408.606 151.835 409.575 147.111 411.513 143.14C413.474 139.145 416.237 136.059 419.802 133.882C423.39 131.705 427.624 130.616 432.505 130.616C437.385 130.616 441.607 131.705 445.171 133.882C448.736 136.059 451.487 139.145 453.425 143.14C455.362 147.111 456.331 151.835 456.331 157.314V157.385C456.331 162.864 455.362 167.6 453.425 171.595C451.487 175.59 448.736 178.676 445.171 180.853C441.631 183.03 437.409 184.119 432.505 184.119ZM432.505 178.162C436.069 178.162 439.131 177.313 441.691 175.614C444.274 173.892 446.26 171.476 447.647 168.366C449.035 165.256 449.729 161.596 449.729 157.385V157.314C449.729 153.079 449.023 149.407 447.612 146.297C446.224 143.187 444.239 140.795 441.655 139.121C439.071 137.422 436.021 136.573 432.505 136.573C428.988 136.573 425.926 137.422 423.318 139.121C420.735 140.795 418.737 143.187 417.326 146.297C415.914 149.383 415.209 153.055 415.209 157.314V157.385C415.209 161.62 415.914 165.292 417.326 168.402C418.737 171.512 420.735 173.916 423.318 175.614C425.902 177.313 428.964 178.162 432.505 178.162Z" fill="white"/>
<path d="M497.5 184.119C493.887 184.119 490.622 183.497 487.703 182.253C484.785 180.985 482.285 179.167 480.204 176.798C478.146 174.43 476.555 171.583 475.431 168.258C474.331 164.933 473.78 161.213 473.78 157.098V157.062C473.78 151.656 474.749 146.979 476.687 143.032C478.649 139.085 481.4 136.035 484.94 133.882C488.505 131.705 492.691 130.616 497.5 130.616C501.471 130.616 504.904 131.322 507.798 132.733C510.717 134.121 513.109 136.023 514.975 138.439C516.841 140.831 518.169 143.558 518.958 146.62L519.137 147.302H512.355L512.212 146.907C511.016 143.63 509.174 141.094 506.686 139.3C504.198 137.482 501.136 136.573 497.5 136.573C493.959 136.573 490.909 137.398 488.349 139.049C485.79 140.676 483.816 143.02 482.428 146.082C481.065 149.144 480.383 152.804 480.383 157.062V157.098C480.383 160.352 480.778 163.282 481.567 165.89C482.357 168.473 483.493 170.686 484.976 172.528C486.483 174.346 488.289 175.746 490.395 176.727C492.5 177.684 494.868 178.162 497.5 178.162C500.562 178.162 503.253 177.552 505.573 176.332C507.918 175.088 509.736 173.366 511.028 171.165C512.343 168.964 513.001 166.416 513.001 163.522V162.589H498.397V156.919H519.46V161.835C519.46 165.328 518.958 168.45 517.953 171.201C516.972 173.952 515.537 176.296 513.647 178.234C511.757 180.148 509.449 181.607 506.722 182.612C504.018 183.616 500.944 184.119 497.5 184.119Z" fill="white"/>
<path d="M539.17 183.258V131.477H545.629V183.258H539.17Z" fill="white"/>
<path d="M567.097 183.258V131.477H599.177V137.291H573.556V153.905H597.85V159.646H573.556V177.444H599.177V183.258H567.097Z" fill="white"/>
<path d="M636.075 184.119C632.344 184.119 629.054 183.545 626.207 182.396C623.385 181.224 621.136 179.562 619.461 177.408C617.811 175.255 616.878 172.708 616.662 169.765L616.627 169.263H623.086L623.157 169.765C623.42 171.488 624.126 172.983 625.274 174.251C626.423 175.495 627.942 176.464 629.832 177.157C631.745 177.827 633.946 178.162 636.434 178.162C638.922 178.162 641.075 177.815 642.893 177.121C644.711 176.404 646.111 175.387 647.092 174.071C648.096 172.756 648.599 171.213 648.599 169.442V169.406C648.599 167.134 647.809 165.316 646.231 163.952C644.652 162.589 642.08 161.512 638.516 160.723L632.774 159.467C627.727 158.342 623.983 156.62 621.543 154.299C619.126 151.955 617.918 148.893 617.918 145.113V145.077C617.942 142.231 618.732 139.731 620.287 137.578C621.842 135.401 623.983 133.702 626.71 132.482C629.461 131.238 632.607 130.616 636.147 130.616C639.52 130.616 642.534 131.226 645.19 132.446C647.845 133.642 649.962 135.317 651.541 137.47C653.144 139.623 654.041 142.111 654.233 144.934L654.268 145.472H647.809L647.738 144.97C647.474 143.199 646.829 141.692 645.8 140.448C644.771 139.204 643.42 138.247 641.745 137.578C640.094 136.908 638.169 136.573 635.968 136.573C633.671 136.573 631.662 136.92 629.939 137.614C628.217 138.307 626.877 139.276 625.92 140.52C624.987 141.764 624.521 143.223 624.521 144.898V144.934C624.521 147.039 625.322 148.773 626.925 150.137C628.528 151.5 631.016 152.553 634.389 153.295L640.13 154.551C643.671 155.316 646.542 156.333 648.742 157.601C650.967 158.869 652.594 160.447 653.623 162.337C654.675 164.203 655.201 166.452 655.201 169.083V169.119C655.201 172.181 654.424 174.837 652.869 177.086C651.338 179.334 649.137 181.069 646.266 182.289C643.42 183.509 640.023 184.119 636.075 184.119Z" fill="white"/>
</svg>